<svg id="visual" viewBox="0 0 900 100" width="900" height="100" xmlns="http://www.w3.org/2000/svg" xmlns:xlink="http://www.w3.org/1999/xlink" version="1.1"><rect x="0" y="0" width="900" height="100" fill="#FFFFFF"></rect><path d="M0 59L21.5 61.7C43 64.3 86 69.7 128.8 73.2C171.7 76.7 214.3 78.3 257.2 76.2C300 74 343 68 385.8 67C428.7 66 471.3 70 514.2 68.7C557 67.3 600 60.7 642.8 57.7C685.7 54.7 728.3 55.3 771.2 57.5C814 59.7 857 63.3 878.5 65.2L900 67L900 0L878.5 0C857 0 814 0 771.2 0C728.3 0 685.7 0 642.8 0C600 0 557 0 514.2 0C471.3 0 428.7 0 385.8 0C343 0 300 0 257.2 0C214.3 0 171.7 0 128.8 0C86 0 43 0 21.5 0L0 0Z" fill="#fa7268"></path><path d="M0 66L21.5 63.2C43 60.3 86 54.7 128.8 52.5C171.7 50.3 214.3 51.7 257.2 50C300 48.3 343 43.7 385.8 44.8C428.7 46 471.3 53 514.2 54.2C557 55.3 600 50.7 642.8 49.5C685.7 48.3 728.3 50.7 771.2 52.7C814 54.7 857 56.3 878.5 57.2L900 58L900 0L878.5 0C857 0 814 0 771.2 0C728.3 0 685.7 0 642.8 0C600 0 557 0 514.2 0C471.3 0 428.7 0 385.8 0C343 0 300 0 257.2 0C214.3 0 171.7 0 128.8 0C86 0 43 0 21.5 0L0 0Z" fill="#ef5f67"></path><path d="M0 47L21.5 45.3C43 43.7 86 40.3 128.8 37.7C171.7 35 214.3 33 257.2 34.7C300 36.3 343 41.7 385.8 42.3C428.7 43 471.3 39 514.2 36C557 33 600 31 642.8 31.7C685.7 32.3 728.3 35.7 771.2 35.7C814 35.7 857 32.3 878.5 30.7L900 29L900 0L878.5 0C857 0 814 0 771.2 0C728.3 0 685.7 0 642.8 0C600 0 557 0 514.2 0C471.3 0 428.7 0 385.8 0C343 0 300 0 257.2 0C214.3 0 171.7 0 128.8 0C86 0 43 0 21.5 0L0 0Z" fill="#e34c67"></path><path d="M0 37L21.5 34.5C43 32 86 27 128.8 26.5C171.7 26 214.3 30 257.2 32.3C300 34.7 343 35.3 385.8 35C428.7 34.7 471.3 33.3 514.2 31.8C557 30.3 600 28.7 642.8 29.5C685.7 30.3 728.3 33.7 771.2 32.2C814 30.7 857 24.3 878.5 21.2L900 18L900 0L878.5 0C857 0 814 0 771.2 0C728.3 0 685.7 0 642.8 0C600 0 557 0 514.2 0C471.3 0 428.7 0 385.8 0C343 0 300 0 257.2 0C214.3 0 171.7 0 128.8 0C86 0 43 0 21.5 0L0 0Z" fill="#d53867"></path><path d="M0 12L21.5 11.5C43 11 86 10 128.8 10C171.7 10 214.3 11 257.2 12.5C300 14 343 16 385.8 17.5C428.7 19 471.3 20 514.2 20C557 20 600 19 642.8 17.8C685.7 16.7 728.3 15.3 771.2 14.2C814 13 857 12 878.5 11.5L900 11L900 0L878.5 0C857 0 814 0 771.2 0C728.3 0 685.7 0 642.8 0C600 0 557 0 514.2 0C471.3 0 428.7 0 385.8 0C343 0 300 0 257.2 0C214.3 0 171.7 0 128.8 0C86 0 43 0 21.5 0L0 0Z" fill="#d53867"></path></svg>