<svg id="visual" viewBox="0 0 900 300" width="900" height="300" xmlns="http://www.w3.org/2000/svg" xmlns:xlink="http://www.w3.org/1999/xlink" version="1.1"><rect x="0" y="0" width="900" height="300" fill="#d53867"></rect><path d="M0 135L25 139.2C50 143.3 100 151.7 150 154C200 156.3 250 152.7 300 146.3C350 140 400 131 450 125.3C500 119.7 550 117.3 600 120.7C650 124 700 133 750 136.7C800 140.3 850 138.7 875 137.8L900 137L900 301L875 301C850 301 800 301 750 301C700 301 650 301 600 301C550 301 500 301 450 301C400 301 350 301 300 301C250 301 200 301 150 301C100 301 50 301 25 301L0 301Z" fill="#c62368" stroke-linecap="round" stroke-linejoin="miter"></path></svg>